<svg id="noun-maternity-1234163" xmlns="http://www.w3.org/2000/svg" width="43.201" height="57.631" viewBox="0 0 43.201 57.631">
  <path id="Path_8051" data-name="Path 8051" d="M188.031,51.114v2.341h-3.243a.72.72,0,0,0-.721.721V107.3a.72.72,0,0,0,.721.721h41.76a.72.72,0,0,0,.721-.721V54.174a.72.72,0,0,0-.721-.721h-3.424v-2.34a.721.721,0,1,0-1.441,0v2.341h-1.621V51.113a.721.721,0,1,0-1.441,0v2.341h-5.695V51.113a.721.721,0,1,0-1.441,0v2.341h-1.621V51.113a.721.721,0,1,0-1.441,0v2.341H202.73V51.113a.721.721,0,1,0-1.441,0v2.341h-1.621V51.113a.721.721,0,1,0-1.441,0v2.341h-5.695V51.113a.721.721,0,1,0-1.441,0v2.341h-1.621V51.113a.721.721,0,0,0-1.442,0Zm3.062,3.781v2.34a.721.721,0,1,0,1.441,0V54.9h5.695v2.34a.721.721,0,0,0,1.441,0V54.9h1.621v2.34a.721.721,0,0,0,1.441,0V54.9h5.694v2.34a.721.721,0,0,0,1.441,0V54.9h1.621v2.34a.721.721,0,0,0,1.441,0V54.9h5.695v2.34a.721.721,0,1,0,1.441,0V54.9h1.621v2.34a.721.721,0,1,0,1.441,0V54.9h2.7l0,51.687H185.508V54.9h2.522v2.34a.721.721,0,0,0,1.441,0V54.9Z" transform="translate(-184.067 -50.392)" fill="#f7005f"/>
  <path id="Path_8052" data-name="Path 8052" d="M266.842,175.116a12.583,12.583,0,0,0,12.194-9.573.721.721,0,0,0,.032-.123,12.524,12.524,0,0,0,.344-2.874V146.621a12.569,12.569,0,0,0-25.139,0v15.925a12.583,12.583,0,0,0,12.569,12.569Zm11-10.937-9.624-5.941,9.758-6.023v10.333A11.2,11.2,0,0,1,277.838,164.178Zm-11-28.686a11.141,11.141,0,0,1,11.129,11.128v3.9l-11.129,6.87-11.128-6.87v-3.9A11.141,11.141,0,0,1,266.842,135.492Zm-11.128,16.722,21.8,13.458a11.125,11.125,0,0,1-21.8-3.125Z" transform="translate(-245.242 -123.29)" fill="#f7005f"/>
  <path id="Path_8053" data-name="Path 8053" d="M297.724,180.534a7.937,7.937,0,0,0,.09-15.874c-.008,0-.015,0-.022,0l-.022,0-.045,0a7.939,7.939,0,0,0,0,15.878Zm-2.542-13.919a2.728,2.728,0,0,0,4.927,2.229.72.72,0,1,0-1.22-.767,1.293,1.293,0,1,1-1.12-1.977,6.493,6.493,0,1,1-2.588.516Z" transform="translate(-276.186 -149.957)" fill="#f7005f"/>
  <path id="Path_8054" data-name="Path 8054" d="M326.922,241.632a4.093,4.093,0,0,0,3.53-2.037.72.72,0,1,0-1.246-.722,2.639,2.639,0,0,1-4.569,0,.721.721,0,1,0-1.246.724,4.1,4.1,0,0,0,3.53,2.035Z" transform="translate(-305.384 -214.314)" fill="#f7005f"/>
</svg>
