<svg id="noun-child-care-4517594_1_" data-name="noun-child-care-4517594 (1)" xmlns="http://www.w3.org/2000/svg" width="55.829" height="57.631" viewBox="0 0 55.829 57.631">
  <path id="Path_8097" data-name="Path 8097" d="M130.078,227.5a4.507,4.507,0,0,0-4.5,4.5v6.547l-2.589,2.589a4.463,4.463,0,0,0-1.277-2.569,4.509,4.509,0,0,0-6.367,0l-2.7,2.7a.9.9,0,0,0,1.273,1.274l2.7-2.7a2.7,2.7,0,1,1,3.82,3.82l-6.612,6.612a.9.9,0,0,0-.18.982.947.947,0,0,0,1.481.292l11.987-11.989a.9.9,0,0,0,.264-.636V232a2.7,2.7,0,1,1,5.4,0v8.413a2.686,2.686,0,0,1-.791,1.911l-11.552,11.551a.9.9,0,0,0-.264.637v5.4H107.567v-9.905a2.685,2.685,0,0,1,.791-1.911l2.856-2.855a.9.9,0,1,0-1.273-1.274l-2.856,2.855h0a4.649,4.649,0,0,0-.418.509,4.65,4.65,0,0,0-.418-.509l-8.259-8.258h0a4.509,4.509,0,0,0-6.367,0,4.462,4.462,0,0,0-1.277,2.569l-2.589-2.589V232a4.5,4.5,0,0,0-9,0v8.413A4.474,4.474,0,0,0,80.07,243.6l11.288,11.287v5.931a.9.9,0,0,0,.9.9h28.815a.9.9,0,0,0,.9-.9v-5.931L133.262,243.6a4.474,4.474,0,0,0,1.318-3.184V232a4.507,4.507,0,0,0-4.5-4.5ZM92.9,253.875,81.344,242.324a2.686,2.686,0,0,1-.791-1.911V232a2.7,2.7,0,1,1,5.4,0v6.921a.9.9,0,0,0,.264.636l11.989,11.989a.958.958,0,0,0,1.495-.292.9.9,0,0,0-.2-.982L92.9,243.661a2.7,2.7,0,1,1,3.82-3.82l8.259,8.258a2.685,2.685,0,0,1,.791,1.911v9.905H93.16v-5.4a.9.9,0,0,0-.264-.637Z" transform="translate(-78.752 -204.084)" fill="#f7005f"/>
  <path id="Path_8098" data-name="Path 8098" d="M310.752,162.9a4.507,4.507,0,0,0,4.5-4.5.9.9,0,1,0-1.8,0,2.7,2.7,0,1,1-5.4,0,.9.9,0,0,0-1.8,0,4.507,4.507,0,0,0,4.5,4.5Z" transform="translate(-282.838 -141.29)" fill="#f7005f"/>
  <path id="Path_8099" data-name="Path 8099" d="M211.932,16.073a12.594,12.594,0,0,0,24.965.008,2.7,2.7,0,0,0,0-5.176,12.594,12.594,0,0,0-24.964,0,2.7,2.7,0,0,0,0,5.168Zm.823-3.48a.9.9,0,0,0,.9-.832,10.844,10.844,0,0,1,7.393-9.418,3.556,3.556,0,0,0-.235,1.245,3.6,3.6,0,0,0,3.6,3.6.9.9,0,0,0,0-1.8,1.8,1.8,0,1,1,0-3.6,10.841,10.841,0,0,1,10.762,9.973.9.9,0,0,0,.9.832h.043a.9.9,0,0,1,.9.9.913.913,0,0,1-.946.9.9.9,0,0,0-.9.832,10.794,10.794,0,0,1-21.521,0,.944.944,0,0,0-.945-.832.9.9,0,0,1-.9-.9.913.913,0,0,1,.946-.9Z" transform="translate(-196.501 0.015)" fill="#f7005f"/>
  <path id="Path_8100" data-name="Path 8100" d="M223.237,251.872a9.912,9.912,0,0,0-4.052,3.188.9.9,0,1,0,1.441,1.081,8.088,8.088,0,0,1,3.316-2.611.9.9,0,1,0-.7-1.661Z" transform="translate(-204.571 -225.883)" fill="#f7005f"/>
  <path id="Path_8101" data-name="Path 8101" d="M428.966,251.9a.9.9,0,0,0-.7,1.661,8.086,8.086,0,0,1,3.315,2.611.9.9,0,0,0,1.441-1.081A9.9,9.9,0,0,0,428.966,251.9Z" transform="translate(-391.803 -225.914)" fill="#f7005f"/>
</svg>
