<svg xmlns="http://www.w3.org/2000/svg" xmlns:xlink="http://www.w3.org/1999/xlink" width="57.488" height="57.631" viewBox="0 0 57.488 57.631">
  <defs>
    <linearGradient id="linear-gradient" x1="0.5" x2="0.5" y2="1" gradientUnits="objectBoundingBox">
      <stop offset="0" stop-color="#54a6c6"/>
      <stop offset="1" stop-color="#ac56cc"/>
    </linearGradient>
  </defs>
  <g id="noun-diversity-4531563" transform="translate(-79.165 -8.568)">
    <path id="Path_8124" data-name="Path 8124" d="M134.138,47.486a2.918,2.918,0,0,0-2.423-4.532h-.225v-.2a14.562,14.562,0,0,1,.784-4.469c.523-1.622,1.072-4.73.685-10.306V17.531a2.915,2.915,0,0,0-2.91-2.91,2.866,2.866,0,0,0-1.595.477v-.134a2.915,2.915,0,0,0-4.513-2.433V11.478a2.913,2.913,0,0,0-5.8-.37,2.911,2.911,0,0,0-4.523,2.423v.36h-.243a14.127,14.127,0,0,1-4.477-.784c-1.631-.523-4.757-1.063-10.306-.676H88.128a2.9,2.9,0,0,0-2.442,4.5h-.126a2.919,2.919,0,0,0-2.45,4.5H82.065a2.918,2.918,0,0,0-.36,5.811,2.936,2.936,0,0,0-.487,1.622,2.9,2.9,0,0,0,2.9,2.9h.234v.252A14.3,14.3,0,0,1,83.57,36.5c-.523,1.613-1.072,4.721-.685,10.3V57.252a2.922,2.922,0,0,0,2.919,2.91,2.866,2.866,0,0,0,1.595-.477v.126a2.915,2.915,0,0,0,2.91,2.91,2.866,2.866,0,0,0,1.595-.477v1.045a2.913,2.913,0,0,0,5.8.369,2.911,2.911,0,0,0,4.523-2.423v-.405h.243a14.312,14.312,0,0,1,4.469.775,22.168,22.168,0,0,0,6.748.82c1.063,0,2.243-.036,3.568-.135h10.451a2.915,2.915,0,0,0,2.91-2.91,2.866,2.866,0,0,0-.477-1.595h.126a2.915,2.915,0,0,0,2.91-2.91,2.866,2.866,0,0,0-.477-1.595h1.045a2.91,2.91,0,0,0,.4-5.793ZM114.912,13.522a1.595,1.595,0,1,1,3.19,0v9.694a.658.658,0,0,0,1.316,0V11.477a1.595,1.595,0,1,1,3.19,0V23.225a.658.658,0,0,0,1.316,0V14.945a1.6,1.6,0,0,1,3.2.018v8.27a.658.658,0,0,0,1.316,0v-5.7a1.595,1.595,0,1,1,3.19,0v10.5c.37,5.414-.135,8.352-.622,9.856a15.513,15.513,0,0,0-.847,4.874v.2H117.147a8.384,8.384,0,0,0-2.469-5.829c-.027-.018-.054-.045-.081-.063-1.5-.883-3.153-3.09-4.82-6.369a8.13,8.13,0,0,1,3.82-1.135.434.434,0,0,0,.036.1.662.662,0,0,0,1.3-.189V13.522Zm-7.82,29.658c-1.694-3.28-3.378-5.469-5.018-6.5,3.378-1.748,5.622-3.469,6.649-5.126,1.685,3.27,3.369,5.469,4.991,6.513C110.362,39.792,108.128,41.513,107.092,43.18ZM82.533,28.865a1.59,1.59,0,0,1,1.586-1.595h9.712a.658.658,0,0,0,0-1.316H82.065a1.595,1.595,0,0,1,0-3.19h3.45c.009,0,.027.009.036.009h8.27a.658.658,0,1,0,0-1.316H85.6c-.009,0-.027-.009-.036-.009a1.59,1.59,0,1,1,0-3.18h8.27a.658.658,0,1,0,0-1.316h-5.7a1.59,1.59,0,1,1,0-3.18h10.5c5.387-.378,8.342.126,9.856.613a15.614,15.614,0,0,0,4.883.847h.234V28.252a8.321,8.321,0,0,0-5.865,2.46.319.319,0,0,0-.063.09c-.883,1.5-3.108,3.18-6.45,4.874a6.935,6.935,0,0,1-.477-.874c-.036-.081-.072-.153-.108-.243-.045-.108-.09-.216-.126-.333-.072-.2-.135-.405-.2-.63-.027-.09-.045-.2-.072-.3-.063-.252-.108-.523-.153-.811-.018-.1-.018-.207-.027-.315s-.009-.225-.018-.333c.081-.027.162-.054.243-.072a.663.663,0,0,0,.46-.73.651.651,0,0,0-.649-.559H84.119a1.635,1.635,0,0,1-1.586-1.613Zm18.388,32.388a1.595,1.595,0,0,1-3.19,0V51.541a.658.658,0,1,0-1.316,0V63.3a1.595,1.595,0,1,1-3.19,0V51.541a.658.658,0,1,0-1.316,0v8.27a1.595,1.595,0,0,1-3.19,0v-8.27a.658.658,0,1,0-1.316,0v5.721a1.6,1.6,0,0,1-3.2-.009v-10.5c-.378-5.414.135-8.342.622-9.847a15.6,15.6,0,0,0,.856-4.892v-.225H98.694c.009.108.027.189.036.3.027.307.063.6.108.883.027.135.045.27.072.4.063.307.135.586.216.856.036.108.063.207.1.315.081.234.162.45.252.649q.081.189.162.351c.063.117.117.225.18.333a6.8,6.8,0,0,0,1.342,1.775.319.319,0,0,0,.09.063c1.486.874,3.135,3.054,4.793,6.315a8.018,8.018,0,0,1-3.811,1.135c0-.018-.009-.027-.018-.045a.66.66,0,0,0-1.3.171Zm32.838-9.279H122.011a.658.658,0,0,0,0,1.316h8.261a1.595,1.595,0,1,1,0,3.19H122a.658.658,0,1,0,0,1.316h5.712a1.595,1.595,0,0,1-.009,3.19h-10.5c-5.387.378-8.333-.126-9.856-.622a15.589,15.589,0,0,0-4.883-.838h-.234V46.5a8.348,8.348,0,0,0,5.865-2.477.416.416,0,0,0,.054-.081c.9-1.513,3.126-3.18,6.45-4.856a8.111,8.111,0,0,1,1.189,3.8c-.081.027-.153.054-.234.081a.662.662,0,0,0,.189,1.3h.577a.532.532,0,0,0,.171.036h14.315a.523.523,0,0,0,.171-.036h.712a1.6,1.6,0,0,1,.009,3.2H122a.658.658,0,1,0,0,1.316h11.756a1.595,1.595,0,1,1,0,3.189Z" fill="url(#linear-gradient)"/>
  </g>
</svg>
