<svg xmlns="http://www.w3.org/2000/svg" xmlns:xlink="http://www.w3.org/1999/xlink" width="57.908" height="57.908" viewBox="0 0 57.908 57.908">
  <defs>
    <linearGradient id="linear-gradient" x1="0.5" x2="0.5" y2="1" gradientUnits="objectBoundingBox">
      <stop offset="0" stop-color="#54a6c6"/>
      <stop offset="1" stop-color="#ac56cc"/>
    </linearGradient>
  </defs>
  <g id="noun-fun-2546416" transform="translate(-84 -14)">
    <path id="Path_8116" data-name="Path 8116" d="M112.954,14a28.954,28.954,0,1,0,28.954,28.954A28.98,28.98,0,0,0,112.954,14Zm0,53.7A24.748,24.748,0,1,1,137.7,42.954,24.766,24.766,0,0,1,112.954,67.7Z" fill="url(#linear-gradient)"/>
    <path id="Path_8117" data-name="Path 8117" d="M237.037,186.838a3.718,3.718,0,1,1-3.718-3.718,3.719,3.719,0,0,1,3.718,3.718" transform="translate(-129.751 -150.711)" fill="url(#linear-gradient)"/>
    <path id="Path_8118" data-name="Path 8118" d="M403.419,175.93a1.661,1.661,0,0,0-2.255-.488l-4.511,2.926a1.631,1.631,0,0,0-.731,1.4,1.79,1.79,0,0,0,.731,1.4l4.511,2.926a1.721,1.721,0,0,0,.914.244,1.631,1.631,0,0,0,1.4-.731,1.6,1.6,0,0,0-.488-2.255l-2.377-1.524,2.377-1.524A1.819,1.819,0,0,0,403.419,175.93Z" transform="translate(-277.969 -143.644)" fill="url(#linear-gradient)"/>
    <path id="Path_8119" data-name="Path 8119" d="M266.765,324.832a2.118,2.118,0,0,0-2.8.975,8.285,8.285,0,0,1-14.873,0,2.1,2.1,0,1,0-3.78,1.829,12.477,12.477,0,0,0,22.372,0,2.059,2.059,0,0,0-.915-2.8Z" transform="translate(-143.57 -276.819)" fill="url(#linear-gradient)"/>
  </g>
</svg>
