<svg id="noun-medical-insurance-1958128" xmlns="http://www.w3.org/2000/svg" width="61.28" height="40.081" viewBox="0 0 61.28 40.081">
  <path id="Path_8055" data-name="Path 8055" d="M126.079,136.947H75.2a5.2,5.2,0,0,1-5.2-5.2V102.065a5.2,5.2,0,0,1,5.2-5.2h50.882a5.2,5.2,0,0,1,5.2,5.2v29.682a5.2,5.2,0,0,1-5.2,5.2ZM75.2,98.781a3.289,3.289,0,0,0-3.284,3.284v29.682a3.289,3.289,0,0,0,3.284,3.284h50.882a3.289,3.289,0,0,0,3.284-3.284V102.066a3.289,3.289,0,0,0-3.284-3.284Z" transform="translate(-69.998 -96.866)" fill="#f7005f"/>
  <path id="Path_8056" data-name="Path 8056" d="M345.893,158.495H329.558a.957.957,0,1,1,0-1.915h16.335a.957.957,0,1,1,0,1.915Z" transform="translate(-300.302 -150.046)" fill="#f7005f"/>
  <path id="Path_8057" data-name="Path 8057" d="M514.125,158.495h-4.749a.957.957,0,1,1,0-1.915h4.749a.957.957,0,1,1,0,1.915Z" transform="translate(-460.443 -150.046)" fill="#f7005f"/>
  <path id="Path_8058" data-name="Path 8058" d="M135.318,363.245h-6.875a.957.957,0,0,1,0-1.915h6.875a.957.957,0,1,1,0,1.915Z" transform="translate(-121.195 -332.39)" fill="#f7005f"/>
  <path id="Path_8059" data-name="Path 8059" d="M256.9,363.245h-6.87a.957.957,0,1,1,0-1.915h6.87a.957.957,0,1,1,0,1.915Z" transform="translate(-229.474 -332.39)" fill="#f7005f"/>
  <path id="Path_8060" data-name="Path 8060" d="M378.476,363.245h-6.87a.957.957,0,1,1,0-1.915h6.87a.957.957,0,1,1,0,1.915Z" transform="translate(-337.75 -332.39)" fill="#f7005f"/>
  <path id="Path_8061" data-name="Path 8061" d="M500.018,363.245h-6.875a.957.957,0,0,1,0-1.915h6.87a.957.957,0,0,1,0,1.915Z" transform="translate(-445.987 -332.39)" fill="#f7005f"/>
  <path id="Path_8062" data-name="Path 8062" d="M138.585,174.758h-3.863a1.839,1.839,0,0,1-1.838-1.838v-3.476h-3.471a1.839,1.839,0,0,1-1.838-1.838v-3.863a1.839,1.839,0,0,1,1.838-1.838h3.48v-3.48a1.838,1.838,0,0,1,1.838-1.839H138.6a1.838,1.838,0,0,1,1.829,1.839v3.48h3.48a1.838,1.838,0,0,1,1.838,1.838v3.863a1.838,1.838,0,0,1-1.838,1.838h-3.48v3.48a1.839,1.839,0,0,1-1.838,1.834Zm-3.787-1.915h3.71v-4.357a.958.958,0,0,1,.958-.957h4.357v-3.71h-4.357a.958.958,0,0,1-.958-.957V158.5H134.8v4.357a.957.957,0,0,1-.958.957h-4.357v3.71h4.357a.957.957,0,0,1,.958.957Z" transform="translate(-121.274 -150.049)" fill="#f7005f"/>
</svg>
