<svg xmlns="http://www.w3.org/2000/svg" width="53.546" height="57.293" viewBox="0 0 53.546 57.293">
  <g id="noun-environment-4646980" transform="translate(0)">
    <path id="Path_8104" data-name="Path 8104" d="M275.577,321.284l-5.812-5.4a3.463,3.463,0,0,0-5.349,4.3l2.834,5a.97.97,0,0,0,1.335.364.982.982,0,0,0,.375-1.335l-2.846-5a1.479,1.479,0,0,1,2.316-1.8l5.823,5.272a3.188,3.188,0,0,1,1.026,2.338v10.6a.981.981,0,1,0,1.962,0v-10.6a5.17,5.17,0,0,0-1.665-3.739Z" transform="translate(-253.694 -279.452)" fill="#f7005f"/>
    <path id="Path_8105" data-name="Path 8105" d="M225.827,291.085l-9.925-8.371a5.359,5.359,0,0,1-1.93-4.147v-9.925a1.665,1.665,0,0,1,3.309-.165l.816,8.426a.99.99,0,0,0,1.974-.155l-.816-8.426a3.629,3.629,0,0,0-7.246.353V278.6a7.368,7.368,0,0,0,2.625,5.647l9.584,8.084v3.309a.982.982,0,1,0,1.963,0v-3.75a.991.991,0,0,0-.353-.8Z" transform="translate(-212.007 -239.328)" fill="#f7005f"/>
    <path id="Path_8106" data-name="Path 8106" d="M374.431,325.523l2.845-4.951a3.463,3.463,0,0,0-5.349-4.257l-5.812,5.36a5.14,5.14,0,0,0-1.665,3.783v10.555a.981.981,0,1,0,1.962,0v-10.6a3.188,3.188,0,0,1,1.026-2.338l5.812-5.36a1.479,1.479,0,0,1,2.315,1.8l-2.834,5h0a.981.981,0,1,0,1.7.97Z" transform="translate(-334.428 -279.843)" fill="#f7005f"/>
    <path id="Path_8107" data-name="Path 8107" d="M422.471,265.05a3.618,3.618,0,0,0-3.617,3.309l-.805,8.459a.982.982,0,1,0,1.952.188l.805-8.426h0a1.676,1.676,0,0,1,3.309.165v9.925a5.393,5.393,0,0,1-1.93,4.147l-9.925,8.371a.981.981,0,0,0-.342.749v3.629a.981.981,0,1,0,1.952,0v-3.309l9.584-8.084a7.344,7.344,0,0,0,2.636-5.647V268.6a3.639,3.639,0,0,0-3.617-3.551Z" transform="translate(-372.543 -239.397)" fill="#f7005f"/>
    <path id="Path_8108" data-name="Path 8108" d="M295.267,151.919a17.15,17.15,0,1,0-5.023,12.1A17.128,17.128,0,0,0,295.267,151.919Zm-2-.982h-6.165c-.155-5.636-1.687-10.466-3.981-13.333h0a15.187,15.187,0,0,1,10.146,13.334ZM278.14,136.754c3.309,0,6.75,5.657,7,14.183H271.137c.253-8.5,3.738-14.183,7-14.183Zm-4.985.849c-2.294,2.867-3.816,7.72-3.97,13.333h-6.176A15.187,15.187,0,0,1,273.155,137.6Zm-10.146,15.3h6.176c.155,5.636,1.676,10.466,3.97,13.345h0A15.2,15.2,0,0,1,263.008,152.9Zm15.131,14.183c-3.309,0-6.75-5.657-7-14.183h14.017c-.265,8.525-3.75,14.183-7.014,14.183Zm5-.839c2.283-2.879,3.816-7.72,3.97-13.345h6.165a15.209,15.209,0,0,1-10.135,13.345Z" transform="translate(-251.361 -134.791)" fill="#f7005f"/>
  </g>
</svg>
