<svg xmlns="http://www.w3.org/2000/svg" xmlns:xlink="http://www.w3.org/1999/xlink" width="84.984" height="57.631" viewBox="0 0 84.984 57.631">
  <defs>
    <linearGradient id="linear-gradient" x1="0.5" x2="0.5" y2="1" gradientUnits="objectBoundingBox">
      <stop offset="0" stop-color="#54a6c6"/>
      <stop offset="1" stop-color="#ac56cc"/>
    </linearGradient>
  </defs>
  <g id="noun-team-4659490" transform="translate(-97.993 -109.196)">
    <path id="Path_8120" data-name="Path 8120" d="M181.47,294.488h-4.056v-8.867A12.881,12.881,0,0,0,164.492,272.7a12.9,12.9,0,0,0-5.565,1.226,1.351,1.351,0,0,0,1.132,2.453,9.714,9.714,0,0,1,4.339-.943,10.2,10.2,0,0,1,10.187,10.187v8.867H156.851V282.414A16.423,16.423,0,0,0,140.439,266a17.929,17.929,0,0,0-6.32,1.226,15.44,15.44,0,0,0-5.282,3.584,16.346,16.346,0,0,0-4.81,11.6v11.979H106.2v-8.867a10.2,10.2,0,0,1,10.187-10.187,9.715,9.715,0,0,1,4.339.943,1.351,1.351,0,0,0,1.132-2.453,12.33,12.33,0,0,0-5.565-1.226,12.881,12.881,0,0,0-12.922,12.922v8.867H99.407a1.389,1.389,0,0,0-1.415,1.415,1.336,1.336,0,0,0,1.415,1.415h82.155a1.389,1.389,0,0,0,1.415-1.415,1.343,1.343,0,0,0-1.509-1.32Zm-27.354,0H126.762V282.414a13.677,13.677,0,0,1,27.353,0Z" transform="translate(0 -130.395)" fill="url(#linear-gradient)"/>
    <path id="Path_8121" data-name="Path 8121" d="M293.651,132.023a11.413,11.413,0,1,0-11.413-11.413A11.392,11.392,0,0,0,293.651,132.023Zm0-20.185a8.678,8.678,0,1,1-8.678,8.678A8.655,8.655,0,0,1,293.651,111.838Z" transform="translate(-153.212)" fill="url(#linear-gradient)"/>
    <path id="Path_8122" data-name="Path 8122" d="M162.029,202.539a9.149,9.149,0,1,0-9.149-9.149A9.158,9.158,0,0,0,162.029,202.539Zm0-15.563a6.414,6.414,0,1,1-6.414,6.414A6.42,6.42,0,0,1,162.029,186.976Z" transform="translate(-45.642 -62.404)" fill="url(#linear-gradient)"/>
    <path id="Path_8123" data-name="Path 8123" d="M447.629,202.539a9.149,9.149,0,1,0-9.149-9.149A9.158,9.158,0,0,0,447.629,202.539Zm0-15.563a6.414,6.414,0,1,1-6.414,6.414A6.42,6.42,0,0,1,447.629,186.976Z" transform="translate(-283.138 -62.404)" fill="url(#linear-gradient)"/>
  </g>
</svg>
