<svg id="Group_1334" data-name="Group 1334" xmlns="http://www.w3.org/2000/svg" width="60.588" height="57.631" viewBox="0 0 60.588 57.631">
  <path id="Path_8042" data-name="Path 8042" d="M311.219,146.648c0,.121-.006.235-.013.356l-.019.172c0-.013.025-.153.006-.038a4.392,4.392,0,0,1-.172.705c-.013.044-.1.286-.07.2s-.07.153-.089.191a5.913,5.913,0,0,1-.362.61c-.025.032-.051.07-.076.1.108-.14.019-.025-.006,0-.076.083-.146.165-.222.248s-.133.14-.21.2c-.038.032-.311.254-.159.14a4.544,4.544,0,0,1-.521.337c-.083.044-.172.1-.261.133a1.634,1.634,0,0,1-.152.07c.127-.051.025-.013-.044.013a4.23,4.23,0,0,1-.616.172c-.064.013-.362.057-.172.032-.114.013-.235.019-.349.025a5.7,5.7,0,0,1-.661-.019c-.152-.013.146.025-.006,0-.057-.013-.114-.019-.172-.032-.127-.025-.248-.057-.375-.089-.1-.025-.191-.064-.28-.089-.038-.013-.076-.032-.121-.044.165.064.032.013-.006,0a4.7,4.7,0,0,1-.585-.318,2.638,2.638,0,0,1-.273-.191c.153.114-.1-.083-.127-.114a5.4,5.4,0,0,1-.458-.477c-.025-.025-.108-.14-.006,0-.025-.032-.051-.064-.076-.1-.064-.089-.127-.184-.184-.28s-.1-.165-.146-.254l-.076-.153c-.013-.019-.1-.229-.051-.114.032.083-.057-.159-.07-.2a2.826,2.826,0,0,1-.1-.33c-.025-.114-.051-.222-.07-.337,0-.013-.019-.153-.006-.044.019.127-.006-.108-.013-.133a3.9,3.9,0,0,1,0-.667c.006-.057.038-.318.006-.14q.029-.191.076-.381a5.2,5.2,0,0,1,.191-.61c-.07.184.057-.114.076-.159.051-.1.1-.2.159-.292s.114-.191.178-.28l.1-.133c-.025.032-.114.133.006,0a5.4,5.4,0,0,1,.458-.477c.038-.038.083-.07.127-.108.006-.006.114-.1.032-.032s.051-.032.07-.051c.044-.032.089-.064.14-.1a4.739,4.739,0,0,1,.585-.324c.025-.013.184-.076.076-.038s.032-.013.044-.013c.108-.032.216-.076.324-.108s.191-.051.292-.076c.051-.013.413-.064.216-.044a4.6,4.6,0,0,1,.661-.025c.1,0,.2.013.311.019.191.013.045.006.006,0l.21.038a5.763,5.763,0,0,1,.737.21c.1.038-.019-.013-.032-.019.076.032.153.07.229.108.1.051.2.1.292.159s.21.133.311.2c.019.013.159.121.07.051s.1.083.1.083a5.288,5.288,0,0,1,.5.5c.019.019.127.152.057.064s.076.108.076.1c.064.089.121.184.178.28s.121.216.178.33a1.634,1.634,0,0,1,.07.153c.044.1-.038-.127.013.044a6.044,6.044,0,0,1,.2.737c.006.044.013.083.019.127.019.108-.006-.133.006.051a4.064,4.064,0,0,1,.025.464.953.953,0,1,0,1.906,0,5.678,5.678,0,0,0-3.73-5.275,5.594,5.594,0,0,0-6.152,1.69,5.591,5.591,0,1,0,9.882,3.584.964.964,0,0,0-.953-.953.977.977,0,0,0-.953.953Z" transform="translate(-277.23 -128.401)" fill="#f7005f"/>
  <path id="Path_8043" data-name="Path 8043" d="M278.7,247.486l1.64,6.215c.623,2.37,1.277,4.734,1.875,7.1.006.025.013.057.019.083s.006.032.013.051c.032.153.006-.21,0,.051,0,.083-.006.172-.006.254.006-.178.013-.051-.006-.006-.025.1-.051.191-.083.28-.051.146.108-.184-.019.045-.044.076-.083.152-.127.222-.032.051-.064.1-.1.14.114-.153-.045.044-.07.076a1.75,1.75,0,0,1-.191.184c-.032.025-.229.172-.083.07-.121.083-.248.165-.375.235-.019.006-.28.127-.1.051a1.891,1.891,0,0,1-.248.083,1.7,1.7,0,0,1-.172.044c-.064.013-.261.038-.089.025-.1.006-.2.013-.3.013h-.979a.967.967,0,0,0-.921.7c-.267,1.678-.54,3.355-.807,5.033q-.276,1.725-.553,3.457c-.1.585-.229,1.176-.28,1.773-.006.057,0,.114-.006.178.006-.051.044-.159-.006,0a1.259,1.259,0,0,0-.044.165c-.006.013-.057.14-.013.044s-.089.14-.108.178c-.1.152-.032.032,0,.006a1.6,1.6,0,0,1-.146.146c-.076.076.019-.006.032-.019-.044.032-.089.064-.14.1a1.086,1.086,0,0,1-.146.083c.013-.006.14-.051.032-.013a2.371,2.371,0,0,1-.286.076c.184-.038-.044,0-.1,0-.388.006-.782,0-1.176,0h-2.11c-.025,0-.261-.019-.133,0,.083.013-.153-.044-.2-.057s-.152-.076-.006,0c-.038-.019-.076-.038-.108-.057s-.1-.057-.14-.089c-.1-.07.121.14-.032-.032a.588.588,0,0,0-.089-.089c-.1-.1.076.114-.006,0a2.522,2.522,0,0,1-.146-.248c.089.165-.032-.114-.044-.165-.006-.013-.032-.152-.013-.044.019.127,0-.108,0-.133-.013-.121-.032-.235-.051-.35-.038-.261-.083-.527-.127-.788-.172-1.049-.337-2.1-.508-3.152-.2-1.214-.388-2.428-.585-3.648-.121-.737-.21-1.481-.356-2.205l-.019-.114a.955.955,0,0,0-.921-.7h-1.106a1.442,1.442,0,0,1-.165-.013c.14.006.051.013-.038-.006s-.191-.045-.286-.07c-.057-.019-.108-.038-.159-.051-.013-.006-.14-.057-.044-.013s-.057-.025-.083-.038c-.051-.025-.1-.051-.152-.083-.1-.057-.191-.121-.286-.184-.121-.083.1.089-.006-.006-.032-.025-.064-.057-.1-.083-.083-.076-.159-.159-.235-.241-.006-.013-.089-.121-.025-.032s-.032-.051-.045-.07c-.019-.038-.044-.07-.064-.108,0,0-.108-.222-.057-.108s-.019-.051-.025-.076c-.013-.051-.032-.108-.044-.159a.818.818,0,0,1-.025-.121c.044.172.006.057.006.006,0-.1,0-.2.006-.3s-.038.114.013-.057a.6.6,0,0,0,.025-.1c.057-.216.114-.426.172-.642q.82-3.117,1.646-6.234c.521-1.976,1.042-3.946,1.563-5.923.044-.165.089-.324.127-.489.057-.21.114-.419.184-.629a1.737,1.737,0,0,1,.064-.165c-.006.013-.057.127-.013.025s.1-.21.153-.311.1-.172.146-.254c.038-.057.21-.28.089-.14.07-.083.14-.159.216-.235.032-.032.222-.2.14-.133s.114-.076.159-.1.1-.051.14-.076c.146-.089-.076.006.025-.013s.178-.057.267-.083c.051-.013.108-.019.159-.032-.019.006-.152.006-.044.006.083,0,.165-.006.248-.006.343-.006.686,0,1.036,0h3.5c.286,0,.585.019.871.006.146-.006-.14-.038-.006-.006.038.013.083.013.121.025.1.025.2.057.305.089.057.019.133.083-.013-.006.032.019.07.032.1.051a2.2,2.2,0,0,1,.286.184c-.153-.1.013.019.07.07s.127.133.184.2c.025.032.108.14,0-.006.032.044.064.089.089.133.064.089.114.184.172.28l.133.267c.064.133-.051-.127.006.013.013.044.032.083.044.127a3.811,3.811,0,0,1,.21.674.956.956,0,1,0,1.843-.508,4.976,4.976,0,0,0-1.4-2.631,3.6,3.6,0,0,0-2.377-.9c-1.023-.006-2.046,0-3.069,0h-1.671a4.763,4.763,0,0,0-1.436.146,4.527,4.527,0,0,0-2.771,3.482c-.47,1.8-.953,3.609-1.43,5.414q-.906,3.441-1.817,6.876a6.2,6.2,0,0,0-.356,1.881,3.511,3.511,0,0,0,1.671,2.72,4.411,4.411,0,0,0,2.459.648h.718c-.305-.235-.61-.464-.921-.7.28,1.76.566,3.521.845,5.281q.276,1.735.559,3.47c.057.337.108.674.165,1.01.013.07.025.146.032.216.013.108-.019-.292-.025-.057a2.329,2.329,0,0,0,.184.826,2.874,2.874,0,0,0,2.644,1.83c.394.006.788,0,1.176,0H275.5a3.255,3.255,0,0,0,1.894-.47,2.926,2.926,0,0,0,1.087-1.36,2.96,2.96,0,0,0,.178-.788c.032-.305-.025.083-.019.013.025-.216.07-.432.1-.648l.5-3.088c.324-2.04.718-4.073.985-6.12.006-.038.013-.083.019-.121-.305.235-.61.464-.921.7a6.03,6.03,0,0,0,2.682-.4,3.6,3.6,0,0,0,2.154-3.228,11.9,11.9,0,0,0-.559-2.428q-1.2-4.528-2.4-9.062c-.222-.839-.445-1.684-.667-2.523a.954.954,0,1,0-1.837.515Z" transform="translate(-243.876 -218.9)" fill="#f7005f"/>
  <path id="Path_8044" data-name="Path 8044" d="M130.749,195.868c0,.121-.006.235-.013.356l-.019.172c0-.013.025-.153.006-.038a4.394,4.394,0,0,1-.172.705c-.013.044-.1.286-.07.2s-.07.153-.089.191a5.926,5.926,0,0,1-.362.61c-.025.032-.051.07-.076.1.108-.14.019-.025-.006,0-.076.083-.146.165-.222.248s-.133.14-.21.2c-.038.032-.311.254-.159.14a4.544,4.544,0,0,1-.521.337c-.083.045-.172.1-.261.133a1.621,1.621,0,0,1-.153.07c.127-.051.025-.013-.044.013a4.23,4.23,0,0,1-.616.172c-.064.013-.362.057-.172.032-.114.013-.235.019-.35.025a5.7,5.7,0,0,1-.661-.019c-.153-.013.146.025-.006,0-.057-.013-.114-.019-.172-.032-.127-.025-.248-.057-.375-.089-.1-.025-.191-.064-.28-.089-.038-.013-.076-.032-.121-.045.165.064.032.013-.006,0a4.7,4.7,0,0,1-.585-.318,2.633,2.633,0,0,1-.273-.191c.153.114-.1-.083-.127-.114a5.4,5.4,0,0,1-.458-.477c-.025-.025-.108-.14-.006,0-.025-.032-.051-.064-.076-.1-.064-.089-.127-.184-.184-.28s-.1-.165-.146-.254l-.076-.153c-.013-.019-.1-.229-.051-.114.032.083-.057-.159-.07-.2a2.82,2.82,0,0,1-.1-.33c-.025-.114-.051-.222-.07-.337,0-.013-.019-.153-.006-.044.019.127-.006-.108-.013-.133a3.9,3.9,0,0,1,0-.667c.006-.057.038-.318.006-.14q.029-.191.076-.381a5.209,5.209,0,0,1,.191-.61c-.07.184.057-.114.076-.159.051-.1.1-.2.159-.292s.114-.191.178-.28l.1-.133c-.025.032-.114.133.006,0a5.4,5.4,0,0,1,.458-.477c.038-.038.083-.07.127-.108.006-.006.114-.1.032-.032s.051-.032.07-.051c.044-.032.089-.064.14-.1a4.737,4.737,0,0,1,.585-.324c.025-.013.184-.076.076-.038s.032-.013.044-.013c.108-.032.216-.076.324-.108s.191-.051.292-.076c.051-.013.413-.064.216-.044a4.6,4.6,0,0,1,.661-.025c.1,0,.2.013.311.019.191.013.044.006.006,0l.21.038a5.76,5.76,0,0,1,.737.21c.1.038-.019-.013-.032-.019.076.032.153.07.229.108.1.051.2.1.292.159s.21.133.311.2c.019.013.159.121.07.051s.1.083.1.083a5.288,5.288,0,0,1,.5.5c.019.019.127.153.057.064s.076.108.076.1c.064.089.121.184.178.28s.121.216.178.33a1.623,1.623,0,0,1,.07.153c.044.1-.038-.127.013.044a6.037,6.037,0,0,1,.2.737c.006.044.013.083.019.127.019.108-.006-.133.006.051s.025.318.025.464a.953.953,0,0,0,1.906,0,5.678,5.678,0,0,0-3.73-5.275,5.6,5.6,0,0,0-6.152,1.69,5.591,5.591,0,1,0,9.882,3.584.953.953,0,1,0-1.906,0Z" transform="translate(-117.731 -171.902)" fill="#f7005f"/>
  <path id="Path_8045" data-name="Path 8045" d="M103.062,296.725c.477,1.792.96,3.584,1.436,5.376.489,1.83,1,3.66,1.468,5.5.025.089.013.108.006.006,0,.057.006.114.006.172,0,.038-.038.292.006.083a3.369,3.369,0,0,1-.1.362c-.044.14.064-.127,0,.006a1.717,1.717,0,0,1-.1.184c-.032.051-.064.1-.089.146-.127.2.108-.1-.064.076-.1.1-.178.191-.28.28-.019.013-.159.127-.076.064s-.1.064-.121.076a3.733,3.733,0,0,1-.35.191c-.133.07.127-.044-.019.006-.07.025-.14.051-.21.07a1.7,1.7,0,0,1-.172.044c-.025.006-.3.044-.089.025-.133.013-.273.013-.407.013h-.871a.961.961,0,0,0-.921.7q-.286,2-.572,4.01c-.108.775-.222,1.544-.33,2.319-.025.165-.044.324-.07.489-.013.089-.025.172-.038.267,0,.032-.044.305,0,.1a1.9,1.9,0,0,1-.051.2c-.013.051-.1.2-.013.044a2.408,2.408,0,0,1-.127.216c-.121.2.121-.083-.057.064-.013.013-.216.191-.057.07a2.338,2.338,0,0,1-.21.133c-.191.133.146-.025-.076.038-.051.013-.108.032-.165.044-.229.076.159.013-.089.013H96.8c-.267,0,.1.032-.044-.006l-.2-.057c-.229-.064.114.1-.076-.038a2.352,2.352,0,0,1-.21-.133c.2.152-.222-.267-.064-.064a2.355,2.355,0,0,1-.133-.21c-.114-.165.013.1-.038-.076-.025-.083-.044-.165-.064-.248.044.216.006-.064,0-.1-.006-.1-.025-.178-.038-.267-.006-.057-.019-.114-.025-.172-.1-.655-.184-1.309-.28-1.97q-.334-2.335-.661-4.677a.955.955,0,0,0-.921-.7,11.294,11.294,0,0,0-1.227-.006c-.1.013.019.006.044.013l-.127-.019c-.1-.019-.191-.044-.286-.07s-.159-.051-.241-.083c.172.064-.108-.057-.159-.083a2.062,2.062,0,0,1-.222-.133c-.044-.032-.1-.064-.14-.1.013.013.108.089.025.019a2.158,2.158,0,0,1-.216-.2c-.032-.032-.057-.064-.083-.089s-.121-.146-.057-.064-.019-.025-.019-.038c-.025-.044-.057-.1-.083-.14s-.1-.222-.044-.07a2.232,2.232,0,0,1-.083-.273.816.816,0,0,1-.025-.121c.019.089.006.108.006.006s0-.2.006-.3-.032.114.013-.057c0-.006.006-.019.006-.025.044-.159.089-.324.127-.489.5-1.862,1-3.73,1.493-5.592q.629-2.345,1.252-4.69a1.594,1.594,0,0,1,.044-.165c.051-.191.108-.375.172-.559.013-.044.032-.083.044-.127-.006.013-.057.127-.013.025s.1-.21.153-.311a3.435,3.435,0,0,1,.286-.458c-.1.14.038-.044.083-.089.064-.07.133-.127.2-.191.032-.032.14-.108-.013,0a.829.829,0,0,1,.1-.064c.064-.038.133-.083.2-.121.025-.013.178-.083.064-.038s.019-.006.032-.013c.1-.032.21-.057.311-.083.172-.044-.1-.006.083-.013.057,0,.121-.006.178-.006h5.211c.044,0,.318.013.216.006s.146.032.191.038c.089.025.172.064.261.083s-.038-.013-.051-.019c.032.019.07.032.1.051.076.044.153.089.229.14.013.013.114.089.025.019s.076.07.076.076c.057.051.108.108.165.165.025.032.051.057.076.089.1.108-.083-.121-.006-.006a3.5,3.5,0,0,1,.292.5c.019.038.108.235.076.159-.044-.108.025.064.032.089.013.044.032.083.044.127a2.687,2.687,0,0,1,.2.629.956.956,0,1,0,1.843-.508,5.216,5.216,0,0,0-1.233-2.466,3.514,3.514,0,0,0-2.51-1.055c-.782-.013-1.57,0-2.351,0-.928,0-1.856-.006-2.79,0a3.412,3.412,0,0,0-1.964.572,4.652,4.652,0,0,0-1.652,2.307c-.2.54-.318,1.118-.47,1.671-.261.966-.515,1.932-.775,2.9q-.829,3.117-1.665,6.228a3.9,3.9,0,0,0-.133,2.409,3.7,3.7,0,0,0,1.856,2.084,4.836,4.836,0,0,0,2.211.458h.629c-.305-.235-.61-.464-.921-.7.2,1.417.4,2.834.6,4.251.108.756.216,1.506.324,2.262.013.076.025.159.032.235,0,.019.006.044.006.064v.013c-.032-.2-.038-.222-.025-.076.013.114.025.229.044.337a2.864,2.864,0,0,0,1.328,1.919,5.03,5.03,0,0,0,2.72.4c.737,0,1.506.057,2.243-.013a2.907,2.907,0,0,0,2.167-1.3,2.624,2.624,0,0,0,.394-1.01c-.019.1.057-.426.051-.426-.35.051-.032.222-.032.159,0-.019.006-.044.006-.07.076-.616.178-1.233.261-1.849.235-1.633.464-3.273.7-4.906-.305.235-.61.464-.921.7a7.284,7.284,0,0,0,2-.14,3.974,3.974,0,0,0,2.631-2.332,4.263,4.263,0,0,0-.159-2.822q-1.01-3.794-2.027-7.581c-.2-.743-.4-1.487-.6-2.23a.948.948,0,1,0-1.824.515Z" transform="translate(-89.217 -262.42)" fill="#f7005f"/>
  <path id="Path_8046" data-name="Path 8046" d="M491.739,195.868c0,.121-.006.235-.013.356l-.019.172c0-.013.025-.153.006-.038a4.393,4.393,0,0,1-.172.705c-.013.044-.1.286-.07.2s-.07.153-.089.191a5.917,5.917,0,0,1-.362.61c-.025.032-.051.07-.076.1.108-.14.019-.025-.006,0-.076.083-.146.165-.222.248s-.133.14-.21.2c-.038.032-.311.254-.159.14a4.546,4.546,0,0,1-.521.337c-.083.045-.172.1-.26.133a1.619,1.619,0,0,1-.153.07c.127-.051.025-.013-.044.013a4.228,4.228,0,0,1-.616.172c-.064.013-.362.057-.172.032-.114.013-.235.019-.35.025a5.7,5.7,0,0,1-.661-.019c-.152-.013.146.025-.006,0-.057-.013-.114-.019-.172-.032-.127-.025-.248-.057-.375-.089-.1-.025-.191-.064-.28-.089-.038-.013-.076-.032-.121-.045.165.064.032.013-.006,0a4.693,4.693,0,0,1-.585-.318,2.633,2.633,0,0,1-.273-.191c.153.114-.1-.083-.127-.114a5.418,5.418,0,0,1-.458-.477c-.025-.025-.108-.14-.006,0-.025-.032-.051-.064-.076-.1-.064-.089-.127-.184-.184-.28s-.1-.165-.146-.254l-.076-.153c-.013-.019-.1-.229-.051-.114.032.083-.057-.159-.07-.2a2.826,2.826,0,0,1-.1-.33c-.025-.114-.051-.222-.07-.337,0-.013-.019-.153-.006-.044.019.127-.006-.108-.013-.133a3.9,3.9,0,0,1,0-.667c.006-.057.038-.318.006-.14q.029-.191.076-.381a5.215,5.215,0,0,1,.191-.61c-.07.184.057-.114.076-.159.051-.1.1-.2.159-.292s.114-.191.178-.28l.1-.133c-.025.032-.114.133.006,0a5.4,5.4,0,0,1,.458-.477c.038-.038.083-.07.127-.108.006-.006.114-.1.032-.032s.051-.032.07-.051c.044-.032.089-.064.14-.1a4.735,4.735,0,0,1,.585-.324c.025-.013.184-.076.076-.038s.032-.013.045-.013c.108-.032.216-.076.324-.108s.191-.051.292-.076c.051-.013.413-.064.216-.044a4.594,4.594,0,0,1,.661-.025c.1,0,.2.013.311.019.191.013.044.006.006,0l.21.038a5.759,5.759,0,0,1,.737.21c.1.038-.019-.013-.032-.019.076.032.153.07.229.108.1.051.2.1.292.159s.21.133.311.2c.019.013.159.121.07.051s.1.083.1.083a5.284,5.284,0,0,1,.5.5c.019.019.127.153.057.064s.076.108.076.1c.064.089.121.184.178.28s.121.216.178.33a1.628,1.628,0,0,1,.07.153c.044.1-.038-.127.013.044a6.043,6.043,0,0,1,.2.737c.006.044.013.083.019.127.019.108-.006-.133.006.051s.025.318.025.464a.953.953,0,0,0,1.906,0,5.678,5.678,0,0,0-3.73-5.275,5.594,5.594,0,0,0-6.151,1.69,5.591,5.591,0,1,0,9.882,3.584.953.953,0,1,0-1.906,0Z" transform="translate(-436.773 -171.902)" fill="#f7005f"/>
  <path id="Path_8047" data-name="Path 8047" d="M464.052,296.725c.477,1.792.96,3.584,1.436,5.376.489,1.83,1,3.66,1.468,5.5.025.089.013.108.006.006,0,.057.006.114.006.172,0,.038-.038.292.006.083a3.369,3.369,0,0,1-.1.362c-.044.14.064-.127,0,.006a1.728,1.728,0,0,1-.1.184c-.032.051-.064.1-.089.146-.127.2.108-.1-.064.076-.1.1-.178.191-.28.28-.019.013-.159.127-.076.064s-.1.064-.121.076a3.733,3.733,0,0,1-.349.191c-.133.07.127-.044-.019.006-.07.025-.14.051-.21.07a1.7,1.7,0,0,1-.172.044c-.025.006-.3.044-.089.025-.133.013-.273.013-.407.013h-.871a.961.961,0,0,0-.921.7q-.286,2-.572,4.01c-.108.775-.222,1.544-.33,2.319-.025.165-.044.324-.07.489-.013.089-.025.172-.038.267,0,.032-.044.305,0,.1a1.9,1.9,0,0,1-.051.2c-.013.051-.1.2-.013.044a2.412,2.412,0,0,1-.127.216c-.121.2.121-.083-.057.064-.013.013-.216.191-.057.07a2.348,2.348,0,0,1-.21.133c-.191.133.146-.025-.076.038-.051.013-.108.032-.165.044-.229.076.159.013-.089.013h-3.47c-.267,0,.1.032-.044-.006l-.2-.057c-.229-.064.114.1-.076-.038a2.343,2.343,0,0,1-.21-.133c.2.152-.222-.267-.064-.064a2.369,2.369,0,0,1-.133-.21c-.114-.165.013.1-.038-.076-.025-.083-.044-.165-.064-.248.044.216.006-.064,0-.1-.006-.1-.025-.178-.038-.267-.006-.057-.019-.114-.025-.172-.1-.655-.184-1.309-.28-1.97q-.334-2.335-.661-4.677a.955.955,0,0,0-.922-.7,11.293,11.293,0,0,0-1.226-.006c-.1.013.019.006.044.013l-.127-.019c-.1-.019-.191-.044-.286-.07s-.159-.051-.242-.083c.172.064-.108-.057-.159-.083a2.062,2.062,0,0,1-.222-.133c-.044-.032-.1-.064-.14-.1.013.013.108.089.025.019a2.167,2.167,0,0,1-.216-.2c-.032-.032-.057-.064-.083-.089s-.121-.146-.057-.064-.019-.025-.019-.038c-.025-.044-.057-.1-.083-.14s-.1-.222-.044-.07a2.235,2.235,0,0,1-.083-.273.817.817,0,0,1-.025-.121c.019.089.006.108.006.006s0-.2.006-.3-.032.114.013-.057c0-.006.006-.019.006-.025.044-.159.089-.324.127-.489.5-1.862,1-3.73,1.493-5.592q.629-2.345,1.252-4.69a1.581,1.581,0,0,1,.044-.165c.051-.191.108-.375.172-.559.013-.044.032-.083.045-.127-.006.013-.057.127-.013.025s.1-.21.152-.311a3.437,3.437,0,0,1,.286-.458c-.1.14.038-.044.083-.089.064-.07.133-.127.2-.191.032-.032.14-.108-.013,0a.829.829,0,0,1,.1-.064c.064-.038.133-.083.2-.121.026-.013.178-.083.064-.038s.019-.006.032-.013c.1-.032.21-.057.311-.083.172-.044-.1-.006.083-.013.057,0,.121-.006.178-.006h5.211c.044,0,.318.013.216.006s.146.032.191.038c.089.025.172.064.26.083s-.038-.013-.051-.019c.032.019.07.032.1.051.076.044.153.089.229.14.013.013.114.089.025.019s.076.07.076.076c.057.051.108.108.165.165.025.032.051.057.076.089.1.108-.083-.121-.006-.006a3.5,3.5,0,0,1,.292.5c.019.038.108.235.076.159-.045-.108.025.064.032.089.013.044.032.083.044.127a2.687,2.687,0,0,1,.2.629.956.956,0,1,0,1.843-.508,5.216,5.216,0,0,0-1.233-2.466,3.514,3.514,0,0,0-2.51-1.055c-.782-.013-1.57,0-2.351,0-.928,0-1.856-.006-2.79,0a3.412,3.412,0,0,0-1.964.572,4.653,4.653,0,0,0-1.652,2.307c-.2.54-.318,1.118-.47,1.671-.26.966-.515,1.932-.775,2.9q-.829,3.117-1.665,6.228a3.9,3.9,0,0,0-.133,2.409,3.7,3.7,0,0,0,1.856,2.084,4.836,4.836,0,0,0,2.211.458h.629c-.3-.235-.61-.464-.921-.7.2,1.417.4,2.834.6,4.251.108.756.216,1.506.324,2.262.013.076.025.159.032.235,0,.019.006.044.006.064v.013c-.032-.2-.038-.222-.025-.076.013.114.025.229.044.337a2.864,2.864,0,0,0,1.328,1.919,5.03,5.03,0,0,0,2.72.4c.737,0,1.506.057,2.243-.013a2.907,2.907,0,0,0,2.167-1.3,2.623,2.623,0,0,0,.394-1.01c-.019.1.057-.426.051-.426-.349.051-.032.222-.032.159,0-.019.006-.044.006-.07.076-.616.178-1.233.261-1.849.235-1.633.464-3.273.7-4.906-.305.235-.61.464-.922.7a7.284,7.284,0,0,0,2-.14,3.974,3.974,0,0,0,2.631-2.332,4.263,4.263,0,0,0-.159-2.822q-1.01-3.794-2.027-7.581c-.2-.743-.4-1.487-.6-2.23a.948.948,0,1,0-1.824.515Z" transform="translate(-408.26 -262.42)" fill="#f7005f"/>
  <path id="Path_8048" data-name="Path 8048" d="M407.971,104.043c0-.121.006-.235.013-.356.006-.051.051-.381.013-.178a6.126,6.126,0,0,1,.178-.75c.032-.108.076-.21.114-.318-.07.172.051-.1.076-.153a5.891,5.891,0,0,1,.381-.642l.1-.133c-.108.14-.019.025.006,0,.076-.083.146-.165.222-.248s.152-.159.235-.235c.038-.038.083-.076.121-.108.013-.013.229-.184.064-.057a5.167,5.167,0,0,1,.553-.362,2.644,2.644,0,0,1,.3-.153c.051-.025.1-.044.153-.07-.191.083.064-.019.083-.025a4.776,4.776,0,0,1,.655-.184c.044-.013.375-.064.172-.038a3.391,3.391,0,0,1,.439-.032,6.546,6.546,0,0,1,.705.025c.038.006.184.032.006,0,.057.013.114.019.172.032a3.016,3.016,0,0,1,.413.1c.108.032.216.064.324.1l.159.057c-.038-.013-.159-.076.006,0a4.971,4.971,0,0,1,.623.343c.1.07.21.14.3.216-.153-.114.1.083.127.114a5.2,5.2,0,0,1,.489.5c.019.019.127.153.057.064s.064.083.076.1a4.055,4.055,0,0,1,.222.35c.07.121.133.241.2.369.025.051.044.1.07.153-.057-.127-.013-.025.013.044a5.631,5.631,0,0,1,.216.775c.013.057.019.114.032.172-.038-.21.006.07.006.1q.019.219.019.438a.953.953,0,0,0,1.906,0,6.041,6.041,0,0,0-3.934-5.6,5.971,5.971,0,0,0-6.552,1.729,6.118,6.118,0,0,0-1.443,3.883.96.96,0,0,0,.953.953,1,1,0,0,0,.96-.972Z" transform="translate(-369.24 -90.435)" fill="#f7005f"/>
  <path id="Path_8049" data-name="Path 8049" d="M193.1,104.043c0-.121.006-.235.013-.356.006-.051.051-.381.013-.178a6.126,6.126,0,0,1,.178-.75c.032-.108.076-.21.114-.318-.07.172.051-.1.076-.153a5.887,5.887,0,0,1,.381-.642l.1-.133c-.108.14-.019.025.006,0,.076-.083.146-.165.222-.248s.152-.159.235-.235c.038-.038.083-.076.121-.108.013-.013.229-.184.064-.057a5.164,5.164,0,0,1,.553-.362,2.644,2.644,0,0,1,.3-.153c.051-.025.1-.044.153-.07-.191.083.064-.019.083-.025a4.778,4.778,0,0,1,.655-.184c.044-.013.375-.064.172-.038a3.391,3.391,0,0,1,.439-.032,6.546,6.546,0,0,1,.705.025c.038.006.184.032.006,0,.057.013.114.019.172.032a3.019,3.019,0,0,1,.413.1c.108.032.216.064.324.1l.159.057c-.038-.013-.159-.076.006,0a4.968,4.968,0,0,1,.623.343c.1.07.21.14.305.216-.152-.114.1.083.127.114a5.2,5.2,0,0,1,.489.5c.019.019.127.153.057.064s.064.083.076.1a4.047,4.047,0,0,1,.222.35c.07.121.133.241.2.369.025.051.044.1.07.153-.057-.127-.013-.025.013.044a5.627,5.627,0,0,1,.216.775c.013.057.019.114.032.172-.038-.21.006.07.006.1q.019.219.019.438a.953.953,0,0,0,1.906,0,6.041,6.041,0,0,0-3.934-5.6,5.971,5.971,0,0,0-6.552,1.729,6.118,6.118,0,0,0-1.443,3.883.96.96,0,0,0,.953.953,1.009,1.009,0,0,0,.96-.972Z" transform="translate(-179.339 -90.435)" fill="#f7005f"/>
  <path id="Path_8050" data-name="Path 8050" d="M300.5,38.141c0-.121.006-.235.013-.356.006-.051.051-.381.013-.178a6.127,6.127,0,0,1,.178-.75c.032-.108.076-.21.114-.318-.07.172.051-.1.076-.153a5.891,5.891,0,0,1,.381-.642l.1-.133c-.108.14-.019.025.006,0,.076-.083.146-.165.222-.248s.152-.159.235-.235c.038-.038.083-.076.121-.108.013-.013.229-.184.064-.057a5.167,5.167,0,0,1,.553-.362,2.646,2.646,0,0,1,.3-.153c.051-.025.1-.044.153-.07-.191.083.064-.019.083-.025a4.779,4.779,0,0,1,.655-.184c.044-.013.375-.064.172-.038a3.391,3.391,0,0,1,.438-.032,6.542,6.542,0,0,1,.705.025c.038.006.184.032.006,0,.057.013.114.019.172.032a3.016,3.016,0,0,1,.413.1c.108.032.216.064.324.1l.159.057c-.038-.013-.159-.076.006,0a4.966,4.966,0,0,1,.623.343c.1.07.21.14.305.216-.153-.114.1.083.127.114a5.217,5.217,0,0,1,.489.5c.019.019.127.153.057.064s.064.083.076.1a4.055,4.055,0,0,1,.222.35c.07.121.133.241.2.369.025.051.044.1.07.153-.057-.127-.013-.025.013.044a5.622,5.622,0,0,1,.216.775c.013.057.019.114.032.172-.038-.21.006.07.006.1q.019.219.019.438a.953.953,0,1,0,1.906,0,6.041,6.041,0,0,0-3.934-5.6,5.971,5.971,0,0,0-6.552,1.729,6.118,6.118,0,0,0-1.443,3.883.96.96,0,0,0,.953.953,1,1,0,0,0,.96-.972Z" transform="translate(-274.259 -32.191)" fill="#f7005f"/>
</svg>
