<?xml version="1.0" encoding="UTF-8" standalone="no"?>
<!-- Created with Inkscape (http://www.inkscape.org/) -->

<svg
   xmlns:dc="http://purl.org/dc/elements/1.1/"
   xmlns:cc="http://creativecommons.org/ns#"
   xmlns:rdf="http://www.w3.org/1999/02/22-rdf-syntax-ns#"
   xmlns:svg="http://www.w3.org/2000/svg"
   xmlns="http://www.w3.org/2000/svg"
   version="1.1"
   width="355.16"
   height="199.89999"
   id="svg2"
   xml:space="preserve"><metadata
     id="metadata8"><rdf:RDF><cc:Work
         rdf:about=""><dc:format>image/svg+xml</dc:format><dc:type
           rdf:resource="http://purl.org/dc/dcmitype/StillImage" /><dc:title></dc:title></cc:Work></rdf:RDF></metadata><defs
     id="defs6"><clipPath
       id="clipPath16"><path
         d="m 0.060059,842.04 1545.000041,0 0,-842.04 -1545.000041,0 0,842.04 z"
         id="path18" /></clipPath><clipPath
       id="clipPath26"><path
         d="m 985.969,825.73 204.702,0 0,-171.157 -204.702,0 0,171.157 z"
         id="path28" /></clipPath><clipPath
       id="clipPath38"><path
         d="m 781.499,825.73 204.844,0 0,-171.157 -204.844,0 0,171.157 z"
         id="path40" /></clipPath><clipPath
       id="clipPath50"><path
         d="m 611.438,825.73 170.433,0 0,-205.515 -170.433,0 0,205.515 z"
         id="path52" /></clipPath><clipPath
       id="clipPath62"><path
         d="m 985.969,654.947 204.702,0 0,-171.793 -204.702,0 0,171.793 z"
         id="path64" /></clipPath><clipPath
       id="clipPath74"><path
         d="m 781.499,654.947 204.844,0 0,-171.793 -204.844,0 0,171.793 z"
         id="path76" /></clipPath><clipPath
       id="clipPath86"><path
         d="m 611.438,620.588 170.433,0 0,-205.964 -170.433,0 0,205.964 z"
         id="path88" /></clipPath><clipPath
       id="clipPath98"><path
         d="m 985.969,483.527 204.702,0 0,-171.606 -204.702,0 0,171.606 z"
         id="path100" /></clipPath><clipPath
       id="clipPath110"><path
         d="m 781.499,483.527 204.844,0 0,-171.606 -204.844,0 0,171.606 z"
         id="path112" /></clipPath><clipPath
       id="clipPath122"><path
         d="m 611.438,414.996 170.433,0 0,-205.964 -170.433,0 0,205.964 z"
         id="path124" /></clipPath><clipPath
       id="clipPath134"><path
         d="m 951.984,312.294 238.687,0 0,-137.044 -238.687,0 0,137.044 z"
         id="path136" /></clipPath><clipPath
       id="clipPath146"><path
         d="m 781.499,312.294 170.859,0 0,-137.044 -170.859,0 0,137.044 z"
         id="path148" /></clipPath><clipPath
       id="clipPath158"><path
         d="m 611.438,209.406 170.433,0 0,-34.156 -170.433,0 0,34.156 z"
         id="path160" /></clipPath><clipPath
       id="clipPath170"><path
         d="m 1326.941,825.73 204.84,0 0,-171.157 -204.84,0 0,171.157 z"
         id="path172" /></clipPath><clipPath
       id="clipPath182"><path
         d="m 1190.671,825.73 136.64,0 0,-239.687 -136.64,0 0,239.687 z"
         id="path184" /></clipPath><clipPath
       id="clipPath194"><path
         d="m 1326.941,654.947 204.84,0 0,-171.793 -204.84,0 0,171.793 z"
         id="path196" /></clipPath><clipPath
       id="clipPath206"><path
         d="m 1190.671,586.416 136.64,0 0,-240.322 -136.64,0 0,240.322 z"
         id="path208" /></clipPath><clipPath
       id="clipPath218"><path
         d="m 1326.941,483.527 204.84,0 0,-171.606 -204.84,0 0,171.606 z"
         id="path220" /></clipPath><clipPath
       id="clipPath230"><path
         d="m 1190.671,346.466 136.64,0 0,-171.216 -136.64,0 0,171.216 z"
         id="path232" /></clipPath><clipPath
       id="clipPath242"><path
         d="m 1326.941,312.294 204.84,0 0,-137.044 -204.84,0 0,137.044 z"
         id="path244" /></clipPath><clipPath
       id="clipPath254"><path
         d="m 0.060059,842.04 1545.000041,0 0,-842.04 -1545.000041,0 0,842.04 z"
         id="path256" /></clipPath><clipPath
       id="clipPath1944"><path
         d="m 0.060059,842.04 1545.000041,0 0,-842.04 -1545.000041,0 0,842.04 z"
         id="path1946" /></clipPath></defs><g
     transform="matrix(1.25,0,0,-1.25,-744.095,199.89999)"
     id="g10"><g
       transform="matrix(3.8975869,0,0,3.6213129,694.92816,20.865104)"
       id="g508"><path
         d="m 0,0 0,4.336 1.818,0 0,-4.186 c -0.006,-0.474 0.084,-0.849 0.289,-1.121 0.26,-0.338 0.687,-0.486 1.105,-0.492 0.418,0.006 0.846,0.154 1.104,0.492 0.207,0.272 0.295,0.647 0.291,1.121 l 0,3.661 c 0,0.146 0.027,0.283 0.137,0.39 0.113,0.11 0.269,0.139 0.357,0.135 l 1.602,0 C 6.595,4.289 6.427,4.156 6.427,3.816 L 6.427,0 c 0,-1.744 -1.094,-2.619 -2.547,-2.803 -0.441,-0.052 -0.892,-0.052 -1.336,0 C 1.091,-2.619 0,-1.744 0,0"
         id="path510"
         style="fill:#ed1c28;fill-opacity:1;fill-rule:evenodd;stroke:none" /></g><g
       transform="matrix(3.8975869,0,0,3.6213129,751.52501,36.567118)"
       id="g512"><path
         d="M 0,0 0.277,0 C 0.168,-0.047 0.006,-0.176 0,-0.502 l 0,-5.822 c 0,-1.715 -0.605,-2.836 -1.773,-3.356 -1.022,-0.453 -2.319,-0.422 -3.393,-0.162 -0.314,0.076 -0.623,0.178 -0.922,0.299 l 0.152,1.551 c 0.321,-0.17 0.661,-0.311 0.989,-0.414 0.275,-0.084 0.574,-0.16 0.873,-0.18 0.732,-0.064 1.431,0.053 1.879,0.645 0.189,0.25 0.302,0.617 0.347,0.931 l 0.024,0.266 c -0.617,-0.223 -1.446,-0.322 -2.114,-0.246 -1.113,0.121 -2.068,0.693 -2.544,1.724 -0.569,1.233 -0.459,2.907 0.107,3.901 0.352,0.672 0.955,1.183 1.752,1.408 C -3.189,0.445 -1.371,0 0,0 m -1.822,-5.223 0,3.987 c -0.449,0.068 -1.119,0.127 -1.651,0.015 -0.652,-0.138 -1.127,-0.572 -1.343,-1.205 -0.221,-0.646 -0.219,-1.447 0.035,-2.099 0.24,-0.627 0.777,-1.104 1.461,-1.184 0.468,-0.057 1.138,0.076 1.498,0.486"
         id="path514"
         style="fill:#ed1c28;fill-opacity:1;fill-rule:evenodd;stroke:none" /></g><g
       transform="matrix(3.8975869,0,0,3.6213129,672.34164,11.217928)"
       id="g516"><path
         d="M 0,0 0,7 1.703,7 1.701,5.752 C 2.119,6.658 2.974,7.184 4.214,7.158 4.302,7.156 4.398,7.154 4.49,7.143 4.812,7.107 4.808,6.953 4.808,6.785 l 0,-1.51 C 4.513,5.457 4.132,5.568 3.732,5.578 3.119,5.592 2.507,5.377 2.136,4.773 1.83,4.297 1.822,3.611 1.822,3.031 L 1.822,0"
         id="path518"
         style="fill:#ed1c28;fill-opacity:1;fill-rule:evenodd;stroke:none" /></g><g
       transform="matrix(3.8975869,0,0,3.6213129,775.3042,18.384505)"
       id="g520"><path
         d="M 0,0 0,3.834 C -0.068,3.875 -0.178,3.922 -0.316,3.961 -0.602,4.043 -0.932,4.066 -1.234,4.047 -2.143,3.982 -2.76,3.479 -2.984,2.531 -3.143,1.863 -3.078,1.107 -2.906,0.607 c 0.144,-0.421 0.392,-0.769 0.728,-1 0.365,-0.246 1.006,-0.33 1.494,-0.154 C -0.369,-0.436 -0.102,-0.205 0,0 m 1.82,4.822 0,-5.57 c 0,-0.43 -0.002,-1.014 0.364,-1.231 l -1.659,0 c -0.472,0.01 -0.447,0.483 -0.482,0.772 -0.272,-0.356 -1.107,-0.895 -2.106,-0.854 -0.647,0.026 -1.205,0.247 -1.642,0.608 -0.375,0.312 -0.66,0.699 -0.859,1.146 -0.331,0.752 -0.452,1.709 -0.325,2.592 0.16,1.147 0.754,2.119 1.809,2.635 0.346,0.166 0.73,0.279 1.141,0.346 1.353,0.205 2.912,-0.094 3.759,-0.444"
         id="path522"
         style="fill:#ed1c28;fill-opacity:1;fill-rule:evenodd;stroke:none" /></g><g
       transform="matrix(3.8975869,0,0,3.6213129,868.34739,18.384505)"
       id="g524"><path
         d="M 0,0 0,3.834 C -0.067,3.875 -0.174,3.922 -0.313,3.961 -0.6,4.043 -0.93,4.066 -1.233,4.047 -2.139,3.982 -2.758,3.479 -2.983,2.531 -3.141,1.863 -3.078,1.107 -2.905,0.607 c 0.143,-0.421 0.395,-0.769 0.729,-1 0.363,-0.246 1.006,-0.33 1.494,-0.154 C -0.369,-0.436 -0.098,-0.205 0,0 m 1.822,4.822 0,-5.57 c 0,-0.43 -0.002,-1.014 0.363,-1.231 l -1.658,0 c -0.475,0.01 -0.447,0.483 -0.485,0.772 -0.269,-0.356 -1.103,-0.895 -2.101,-0.854 -0.649,0.026 -1.207,0.247 -1.644,0.608 -0.375,0.312 -0.661,0.699 -0.856,1.146 -0.336,0.752 -0.453,1.709 -0.328,2.592 0.162,1.147 0.754,2.119 1.809,2.635 0.347,0.166 0.73,0.279 1.138,0.346 1.358,0.205 2.914,-0.094 3.762,-0.444"
         id="path526"
         style="fill:#ed1c28;fill-opacity:1;fill-rule:evenodd;stroke:none" /></g><g
       transform="matrix(3.8975869,0,0,3.6213129,788.51311,36.567118)"
       id="g528"><path
         d="M 0,0 -0.275,0 C -0.168,-0.047 -0.006,-0.176 0,-0.502 l 0,-9.355 1.822,0 0,3.113 c 0.397,-0.149 0.813,-0.223 1.219,-0.231 2.07,-0.039 3.598,1.205 3.772,3.225 0.07,0.824 -0.065,1.676 -0.438,2.385 C 6.024,-0.693 5.422,-0.182 4.627,0.043 3.192,0.445 1.371,0 0,0 m 1.822,-5.223 0,3.987 C 2.256,-1.18 2.873,-1.127 3.41,-1.209 4.319,-1.348 4.844,-2.066 4.932,-2.936 4.998,-3.561 4.912,-4.145 4.721,-4.623 4.403,-5.357 3.775,-5.762 3.008,-5.744 2.563,-5.734 2.033,-5.537 1.822,-5.223"
         id="path530"
         style="fill:#ed1c28;fill-opacity:1;fill-rule:evenodd;stroke:none" /></g><g
       transform="matrix(3.8975869,0,0,3.6213129,819.2222,36.567118)"
       id="g532"><path
         d="M 0,0 -0.275,0 C -0.168,-0.047 -0.006,-0.176 0,-0.502 l 0,-9.355 1.822,0 0,3.113 C 2.219,-6.893 2.633,-6.967 3.039,-6.975 5.11,-7.014 6.639,-5.77 6.811,-3.75 6.883,-2.926 6.748,-2.074 6.375,-1.365 6.026,-0.693 5.422,-0.182 4.627,0.043 3.192,0.445 1.371,0 0,0 m 1.822,-5.223 0,3.987 C 2.258,-1.18 2.873,-1.127 3.408,-1.209 4.317,-1.348 4.842,-2.066 4.932,-2.936 4.996,-3.561 4.91,-4.145 4.721,-4.623 4.401,-5.357 3.776,-5.762 3.008,-5.744 2.563,-5.734 2.031,-5.537 1.822,-5.223"
         id="path534"
         style="fill:#ed1c28;fill-opacity:1;fill-rule:evenodd;stroke:none" /></g><g
       transform="matrix(3.8975869,0,0,3.6213129,641.29346,20.865104)"
       id="g536"><path
         d="m 0,0 0,4.336 1.82,0 0,-4.186 c -0.004,-0.474 0.084,-0.849 0.291,-1.121 0.258,-0.338 0.686,-0.486 1.104,-0.492 0.418,0.006 0.848,0.154 1.105,0.492 0.205,0.272 0.293,0.647 0.289,1.121 l 0,3.661 c 0,0.146 0.03,0.283 0.137,0.39 0.113,0.11 0.268,0.139 0.358,0.135 l 1.601,0 C 6.596,4.289 6.432,4.156 6.43,3.816 L 6.43,0 C 6.43,-1.744 5.336,-2.619 3.883,-2.803 3.441,-2.855 2.99,-2.855 2.547,-2.803 1.094,-2.619 0,-1.744 0,0"
         id="path538"
         style="fill:#ed1c28;fill-opacity:1;fill-rule:evenodd;stroke:none" /></g><g
       transform="matrix(3.8975869,0,0,3.6213129,596.23735,11.217928)"
       id="g540"><path
         d="M 0,0 0,4.682 C 0.02,6.223 1.17,7.268 2.881,7.223 3.946,7.195 4.779,6.764 5.162,5.91 5.653,6.859 6.635,7.287 7.731,7.207 9.096,7.111 10.123,6.174 10.104,4.584 l 0,-4.049 C 10.1,0.184 10.27,0.051 10.379,0 L 8.778,0 C 8.604,0.002 8.301,0.084 8.281,0.467 l 0,3.902 C 8.278,4.758 8.192,5.098 7.885,5.371 7.692,5.545 7.438,5.66 7.16,5.678 l -0.146,0 C 6.729,5.666 6.471,5.551 6.271,5.371 5.955,5.086 5.875,4.736 5.875,4.33 l 0,-4.33 -1.82,0 c 0,1.467 0.002,2.914 0.002,4.381 0,0.168 -0.012,0.33 -0.049,0.486 C 3.936,5.156 3.754,5.402 3.49,5.545 3.154,5.73 2.721,5.73 2.387,5.545 2.123,5.402 1.94,5.156 1.869,4.867 1.83,4.711 1.822,4.549 1.822,4.381 L 1.822,0"
         id="path542"
         style="fill:#ed1c28;fill-opacity:1;fill-rule:evenodd;stroke:none" /></g><g
       transform="matrix(3.8975869,0,0,3.6213129,736.55049,104.72385)"
       id="g544"><path
         d="m 0,0 c -0.354,0 -0.637,-0.283 -0.637,-0.637 0,-0.349 0.283,-0.634 0.637,-0.634 0.352,0 0.635,0.285 0.635,0.634 C 0.635,-0.283 0.352,0 0,0 m -1.355,2.285 c 0.23,0.057 0.467,0.055 0.691,0.002 C -0.486,2.244 -0.279,2.146 -0.148,2.051 -0.313,1.986 -0.42,1.654 -0.463,1.506 -0.549,1.184 -0.592,0.828 -0.582,0.492 -0.199,0.67 0.279,0.641 0.688,0.447 L 3.043,-0.631 C 2.49,-0.771 2.129,-0.84 1.735,-1.117 1.258,-1.453 1.178,-2.006 1.196,-2.564 1.227,-3.842 1.446,-5.158 1.748,-6.326 l 0.043,-0.145 c 0.555,-2.125 1.576,-4.058 2.949,-5.693 l 0.051,-0.039 0.311,2.328 -2.688,5.629 4.17,-4.641 2.27,-0.601 -0.606,2.267 -4.636,4.174 5.628,-2.687 2.329,0.306 -1.428,1.865 -5.883,2.081 6.232,-0.331 2.031,1.176 -2.031,1.18 -6.232,-0.33 5.883,2.078 1.428,1.863 L 9.24,4.467 3.612,1.777 8.248,5.947 8.854,8.219 6.584,7.613 2.414,2.975 5.102,8.605 4.791,10.934 2.926,9.506 0.848,3.625 1.178,9.854 0,11.887 -1.176,9.854 l 0.329,-6.229 -2.081,5.881 -1.863,1.428 -0.313,-2.329 2.692,-5.63 -4.172,4.638 -2.27,0.606 0.604,-2.272 4.639,-4.17 -5.629,2.69 -2.33,-0.313 1.427,-1.863 5.885,-2.078 -6.23,0.33 -2.035,-1.18 2.035,-1.176 6.23,0.331 -5.885,-2.081 -1.427,-1.865 2.33,-0.306 5.629,2.687 -4.639,-4.174 -0.604,-2.267 2.27,0.601 4.172,4.641 -2.692,-5.631 0.313,-2.326 0.051,0.039 c 1.982,2.359 3.236,5.357 3.41,8.641 0.016,0.32 0.017,0.63 0.017,0.953 l 0,1.666 c 0,0.3 0.051,0.623 0.202,0.886 0.074,0.145 0.17,0.26 0.277,0.352 -0.303,0.133 -0.646,0.23 -0.973,0.271 -0.156,0.02 -0.5,0.041 -0.621,-0.082 -0.043,0.157 -0.052,0.387 -0.023,0.565 0.037,0.234 0.131,0.461 0.275,0.654 0.202,0.268 0.497,0.463 0.821,0.543 M 0,15.016 2.319,11.014 5.99,13.822 6.598,9.238 l 4.469,1.194 -1.192,-4.467 4.584,-0.611 -2.81,-3.672 4.002,-2.319 -4.002,-2.316 2.81,-3.67 -4.584,-0.611 1.192,-4.467 -4.469,1.189 -0.416,-3.14 -0.24,-1.811 c -0.627,0.568 -1.229,1.16 -1.801,1.783 l -0.02,0.018 -0.002,0.004 -0.099,0.111 c -0.237,0.258 -0.469,0.52 -0.696,0.785 l -0.002,0.006 -10e-4,0.004 c -0.421,0.494 -0.827,1.004 -1.209,1.529 l -0.012,0.014 -0.074,0.102 c -0.294,0.401 -0.577,0.812 -0.848,1.23 L 1.146,-9.832 1.104,-9.768 C 0.713,-9.158 0.344,-8.535 0,-7.9 -0.346,-8.535 -0.713,-9.158 -1.105,-9.768 l -0.043,-0.064 c -0.795,-1.228 -1.688,-2.393 -2.662,-3.484 l -0.004,-0.004 c -0.108,-0.121 -0.215,-0.241 -0.326,-0.36 -0.571,-0.619 -1.17,-1.209 -1.791,-1.775 l -0.01,-0.008 -0.049,0.367 -0.609,4.584 -4.467,-1.189 1.189,4.467 -4.582,0.611 2.811,3.67 -4.002,2.316 4.002,2.319 -2.811,3.672 4.582,0.611 -1.189,4.467 4.467,-1.194 0.609,4.584 3.672,-2.808"
         id="path546"
         style="fill:#ed1c28;fill-opacity:1;fill-rule:evenodd;stroke:none" /></g></g></svg>