<svg xmlns="http://www.w3.org/2000/svg" xmlns:xlink="http://www.w3.org/1999/xlink" width="63.165" height="57.631" viewBox="0 0 63.165 57.631">
  <defs>
    <linearGradient id="linear-gradient" x1="0.5" x2="0.5" y2="1" gradientUnits="objectBoundingBox">
      <stop offset="0" stop-color="#54a6c6"/>
      <stop offset="1" stop-color="#ac56cc"/>
    </linearGradient>
  </defs>
  <g id="noun-salary-1426665" transform="translate(-73.382 -23.443)">
    <path id="Path_8109" data-name="Path 8109" d="M73.385,79.611a1.464,1.464,0,0,0,1.463,1.463h41.361a6.222,6.222,0,0,0,6.2-5.79h12.678a1.464,1.464,0,0,0,1.463-1.463V44.875a1.464,1.464,0,0,0-1.463-1.463H93.8a1.464,1.464,0,0,0-1.463,1.463v5.273H87.4a1.463,1.463,0,1,0,0,2.925h4.94V60.1a1.463,1.463,0,1,0,2.926,0v-7.47a7.916,7.916,0,0,0,6.3-6.3h25.76a7.911,7.911,0,0,0,6.3,6.3V66.061a7.916,7.916,0,0,0-6.3,6.3H95.268V68.59h3.468a1.463,1.463,0,0,0,0-2.926H86.881a1.463,1.463,0,1,0,0,2.926h5.461v5.231a1.464,1.464,0,0,0,1.463,1.463h25.654a3.287,3.287,0,0,1-3.249,2.864h-39.9V39.069h46.995a1.463,1.463,0,1,0,0-2.926h-.882v-7.93a1.464,1.464,0,0,0-1.463-1.463h-6.878V24.906a1.463,1.463,0,1,0-2.926,0v1.843h-11.2V24.906a1.463,1.463,0,1,0-2.926,0v1.843h-11.2V24.906a1.463,1.463,0,1,0-2.926,0v1.843H74.846a1.464,1.464,0,0,0-1.463,1.463V37.6c0,.007,0,.013,0,.02ZM95.267,49.63V46.338H98.56A4.994,4.994,0,0,1,95.267,49.63Zm35.061-3.293h3.293v3.292A4.99,4.99,0,0,1,130.329,46.337Zm3.293,22.728v3.293h-3.293A4.994,4.994,0,0,1,133.621,69.066ZM76.307,29.675H82.9V31.59a1.463,1.463,0,1,0,2.926,0V29.675h11.2V31.59a1.463,1.463,0,1,0,2.926,0V29.675h11.2V31.59a1.463,1.463,0,0,0,2.926,0V29.675H119.5v6.463H76.308Z" fill="url(#linear-gradient)"/>
    <path id="Path_8110" data-name="Path 8110" d="M401.821,288.324A1.458,1.458,0,0,0,403.27,287a4.044,4.044,0,0,0,3.884-3.788v-.127c0-.862-.43-2.111-2.476-3.162-.035-.019-.075-.024-.112-.04a1.521,1.521,0,0,0-.166-.057.912.912,0,0,0-.1-.037L404,279.73l-4.272-.849a2.168,2.168,0,0,1-.666-.505v-.055c0-.418.608-.883,1.422-.883h2.32c.816,0,1.428.465,1.428.883a1.463,1.463,0,0,0,2.926,0,4.047,4.047,0,0,0-3.9-3.788,1.461,1.461,0,0,0-2.873-.016,4.094,4.094,0,0,0-4.248,3.8v.126c0,1.248.816,2.3,2.425,3.128a1.513,1.513,0,0,0,.384.133l.123.024.01,0,3.649.723.786.157a2.268,2.268,0,0,1,.715.549v.046c0,.418-.608.886-1.423.886h-2.319c-.813,0-1.422-.468-1.422-.886a1.463,1.463,0,0,0-2.926,0,4.093,4.093,0,0,0,4.236,3.806,1.455,1.455,0,0,0,1.446,1.308Z" transform="translate(-286.113 -221.515)" fill="url(#linear-gradient)"/>
    <path id="Path_8111" data-name="Path 8111" d="M363.732,246.545a11.886,11.886,0,1,0-11.885,11.887A11.9,11.9,0,0,0,363.732,246.545Zm-20.846,0a8.96,8.96,0,1,1,8.961,8.961A8.971,8.971,0,0,1,342.886,246.545Z" transform="translate(-236.312 -187.237)" fill="url(#linear-gradient)"/>
    <path id="Path_8112" data-name="Path 8112" d="M118.09,316.6a1.464,1.464,0,0,0,1.463,1.463h9.83a1.463,1.463,0,0,0,0-2.926h-9.83A1.463,1.463,0,0,0,118.09,316.6Z" transform="translate(-39.632 -258.573)" fill="url(#linear-gradient)"/>
    <path id="Path_8113" data-name="Path 8113" d="M137.163,258.66h-.856a1.463,1.463,0,1,0,0,2.925h.856a1.463,1.463,0,1,0,0-2.925Z" transform="translate(-54.484 -208.512)" fill="url(#linear-gradient)"/>
  </g>
</svg>
