<svg id="noun-cancel-3402536" xmlns="http://www.w3.org/2000/svg" width="37.724" height="37.724" viewBox="0 0 37.724 37.724">
  <path id="Path_8102" data-name="Path 8102" d="M275.727,207.226l5.187,5.187-5.187,5.187a1.047,1.047,0,1,0,1.477,1.483l5.187-5.187,5.187,5.187a1.047,1.047,0,1,0,1.477-1.483l-5.187-5.187,5.187-5.187a1.048,1.048,0,0,0-1.483-1.483l-5.187,5.187-5.187-5.187a1.045,1.045,0,1,0-1.472,1.483Z" transform="translate(-263.535 -193.551)" fill="#f7005f"/>
  <path id="Path_8103" data-name="Path 8103" d="M148.4,90.991v12.549a12.6,12.6,0,0,0,12.591,12.585h12.549a12.6,12.6,0,0,0,12.585-12.591V90.991A12.605,12.605,0,0,0,173.534,78.4H160.991A12.605,12.605,0,0,0,148.4,90.991Zm35.629,0v12.549a10.5,10.5,0,0,1-10.495,10.489H160.991A10.5,10.5,0,0,1,150.5,103.534V90.991A10.5,10.5,0,0,1,160.991,80.5h12.549A10.5,10.5,0,0,1,184.029,90.991Z" transform="translate(-148.4 -78.4)" fill="#f7005f"/>
</svg>
